<svg role="img" viewBox="0 0 24 24" xmlns="http://www.w3.org/2000/svg" fill="white"><path d="M.045 18.02c.072-.116.187-.124.348-.022 3.636 2.11 7.594 3.166 11.87 3.166 2.852 0 5.668-.533 8.447-1.595l.315-.14c.138-.06.234-.1.293-.13.226-.088.39-.046.525.13.12.174.09.336-.107.48-.256.19-.6.41-1.006.65-1.244.743-2.64 1.316-4.185 1.726a17.627 17.627 0 0 1-10.951-.577 17.2 17.2 0 0 1-5.04-3.116c-.433-.39-.475-.616-.51-.572zm8.327-10.707c0-1.02.268-1.83.804-2.43.536-.598 1.21-.898 2.02-.898.756 0 1.37.27 1.842.807.472.538.708 1.27.708 2.196 0 1.02-.258 1.834-.776 2.44-.518.606-1.2.91-2.046.91-.8 0-1.434-.283-1.904-.852-.47-.566-.648-1.332-.648-2.173zm6.22 8.21c-1.15.73-2.565 1.097-4.243 1.097-2.255 0-4.063-.633-5.426-1.9C3.56 13.453 2.878 11.95 2.878 10.21c0-2.082.73-3.756 2.19-5.022C6.52 3.92 8.386 3.287 10.65 3.287c1.58 0 2.9.38 3.96 1.14.256.182.382.413.38.695l-.034.64-.023.44c-.015.253-.115.405-.303.454-.19.05-.373-.024-.55-.22-.67-.77-1.518-1.155-2.543-1.155-1.14 0-2.063.403-2.77 1.21-.706.808-1.06 1.903-1.06 3.285 0 1.33.36 2.372 1.085 3.126.724.753 1.698 1.13 2.92 1.13 1.066 0 1.9-.283 2.5-.85.12-.115.235-.17.347-.17.143 0 .26.06.35.178.09.118.136.265.136.44 0 .313-.12.606-.36.88-.74.83-1.812 1.377-3.217 1.64z"/></svg>
